<svg width="21" height="15" viewBox="0 0 21 15" fill="none" xmlns="http://www.w3.org/2000/svg">
    <path d="M0.987183 14.5143V8.55272C0.987183 8.10561 1.07826 7.69989 1.26042 7.33557C1.44258 6.97126 1.6827 6.64834 1.98077 6.36682V3.58477C1.98077 2.75678 2.27057 2.05299 2.85016 1.47339C3.42976 0.893801 4.13355 0.604004 4.96154 0.604004H8.9359C9.31678 0.604004 9.67281 0.674383 10.004 0.815142C10.3352 0.9559 10.6416 1.15048 10.9231 1.39888C11.2046 1.15048 11.511 0.9559 11.8422 0.815142C12.1733 0.674383 12.5294 0.604004 12.9103 0.604004H16.8846C17.7126 0.604004 18.4164 0.893801 18.996 1.47339C19.5756 2.05299 19.8654 2.75678 19.8654 3.58477V6.36682C20.1635 6.64834 20.4036 6.97126 20.5857 7.33557C20.7679 7.69989 20.859 8.10561 20.859 8.55272V14.5143H18.8718V12.5271H2.97436V14.5143H0.987183ZM11.9167 5.57195H17.8782V3.58477C17.8782 3.30326 17.783 3.06728 17.5926 2.87684C17.4021 2.6864 17.1661 2.59118 16.8846 2.59118H12.9103C12.6287 2.59118 12.3928 2.6864 12.2023 2.87684C12.0119 3.06728 11.9167 3.30326 11.9167 3.58477V5.57195ZM3.96795 5.57195H9.92949V3.58477C9.92949 3.30326 9.83427 3.06728 9.64383 2.87684C9.4534 2.6864 9.21742 2.59118 8.9359 2.59118H4.96154C4.68002 2.59118 4.44405 2.6864 4.25361 2.87684C4.06317 3.06728 3.96795 3.30326 3.96795 3.58477V5.57195ZM2.97436 10.5399H18.8718V8.55272C18.8718 8.2712 18.7766 8.03523 18.5861 7.84479C18.3957 7.65435 18.1597 7.55913 17.8782 7.55913H3.96795C3.68643 7.55913 3.45046 7.65435 3.26002 7.84479C3.06958 8.03523 2.97436 8.2712 2.97436 8.55272V10.5399Z" fill="white"/>
    </svg>
    