<svg width="15" height="21" viewBox="0 0 15 21" fill="none" xmlns="http://www.w3.org/2000/svg">
<path d="M7.92305 20.4951C6.16771 20.4951 4.73529 20.2177 3.62578 19.663C2.51627 19.1082 1.96152 18.392 1.96152 17.5143C1.96152 17.1169 2.08157 16.7484 2.32169 16.4089C2.56181 16.0695 2.89715 15.7755 3.3277 15.5271L4.89261 16.9927C4.74357 17.0589 4.58211 17.1334 4.40823 17.2162C4.23435 17.299 4.09773 17.3984 3.99837 17.5143C4.21365 17.7793 4.71045 18.0111 5.48876 18.2098C6.26707 18.4085 7.0785 18.5079 7.92305 18.5079C8.76761 18.5079 9.58318 18.4085 10.3698 18.2098C11.1564 18.0111 11.6573 17.7793 11.8726 17.5143C11.7567 17.3818 11.6076 17.2742 11.4255 17.1914C11.2433 17.1086 11.0694 17.0341 10.9038 16.9678L12.4439 15.4775C12.9076 15.7424 13.2636 16.0446 13.512 16.3841C13.7604 16.7236 13.8846 17.1003 13.8846 17.5143C13.8846 18.392 13.3298 19.1082 12.2203 19.663C11.1108 20.2177 9.6784 20.4951 7.92305 20.4951ZM7.94789 15.0303C9.58732 13.8215 10.821 12.6085 11.649 11.3913C12.477 10.1742 12.891 8.95288 12.891 7.72746C12.891 6.03835 12.3528 4.76325 11.2764 3.90214C10.2 3.04103 9.08224 2.61047 7.92305 2.61047C6.76387 2.61047 5.64608 3.04103 4.56969 3.90214C3.4933 4.76325 2.95511 6.03835 2.95511 7.72746C2.95511 8.83697 3.36082 9.99201 4.17225 11.1926C4.98368 12.3932 6.24223 13.6724 7.94789 15.0303ZM7.92305 17.5143C5.58812 15.7921 3.8452 14.1196 2.69429 12.4967C1.54338 10.8738 0.967926 9.28408 0.967926 7.72746C0.967926 6.55171 1.17906 5.52086 1.60134 4.63491C2.02362 3.74896 2.56595 3.00791 3.22834 2.41175C3.89074 1.8156 4.63593 1.36848 5.46392 1.07041C6.29191 0.772329 7.11162 0.623291 7.92305 0.623291C8.73449 0.623291 9.5542 0.772329 10.3822 1.07041C11.2102 1.36848 11.9554 1.8156 12.6178 2.41175C13.2802 3.00791 13.8225 3.74896 14.2448 4.63491C14.667 5.52086 14.8782 6.55171 14.8782 7.72746C14.8782 9.28408 14.3027 10.8738 13.1518 12.4967C12.0009 14.1196 10.258 15.7921 7.92305 17.5143ZM7.92305 9.5656C8.46953 9.5656 8.93734 9.37102 9.3265 8.98186C9.71566 8.59271 9.91023 8.12489 9.91023 7.57842C9.91023 7.03194 9.71566 6.56413 9.3265 6.17497C8.93734 5.78582 8.46953 5.59124 7.92305 5.59124C7.37658 5.59124 6.90876 5.78582 6.51961 6.17497C6.13045 6.56413 5.93587 7.03194 5.93587 7.57842C5.93587 8.12489 6.13045 8.59271 6.51961 8.98186C6.90876 9.37102 7.37658 9.5656 7.92305 9.5656Z" fill="white"/>
</svg>
