<svg width="32" height="33" viewBox="0 0 32 33" fill="none" xmlns="http://www.w3.org/2000/svg">
<path fill-rule="evenodd" clip-rule="evenodd" d="M16 3.52344C21.16 3.52344 25.3333 7.69677 25.3333 12.8568C25.3333 19.8568 16 30.1901 16 30.1901C16 30.1901 6.66663 19.8568 6.66663 12.8568C6.66663 7.69677 10.84 3.52344 16 3.52344ZM9.33328 12.8567C9.33328 16.6567 13.2266 22.4701 15.9999 26.0301C18.8266 22.4434 22.6666 16.6967 22.6666 12.8567C22.6666 9.17673 19.6799 6.19006 15.9999 6.19006C12.3199 6.19006 9.33328 9.17673 9.33328 12.8567ZM15.9999 16.1901C14.159 16.1901 12.6666 14.6977 12.6666 12.8567C12.6666 11.0158 14.159 9.5234 15.9999 9.5234C17.8409 9.5234 19.3333 11.0158 19.3333 12.8567C19.3333 14.6977 17.8409 16.1901 15.9999 16.1901Z" fill="white"/>
</svg>
