<svg width="32" height="33" viewBox="0 0 32 33" fill="none" xmlns="http://www.w3.org/2000/svg">
    <path fill-rule="evenodd" clip-rule="evenodd" d="M8.72005 7.52364C8.80005 8.71031 9.00005 9.87031 9.32005 10.977L7.72005 12.577C7.17338 10.977 6.82672 9.28364 6.70672 7.52364H8.72005ZM21.8667 23.5503C23 23.8703 24.16 24.0703 25.3334 24.1503V26.137C23.5734 26.017 21.88 25.6703 20.2667 25.137L21.8667 23.5503ZM10 4.85693H5.33333C4.6 4.85693 4 5.45693 4 6.19027C4 18.7103 14.1467 28.8569 26.6667 28.8569C27.4 28.8569 28 28.2569 28 27.5236V22.8703C28 22.1369 27.4 21.5369 26.6667 21.5369C25.0133 21.5369 23.4 21.2703 21.9067 20.7769C21.7733 20.7236 21.6267 20.7103 21.4933 20.7103C21.1467 20.7103 20.8133 20.8436 20.5467 21.0969L17.6133 24.0303C13.84 22.0969 10.7467 19.0169 8.82667 15.2436L11.76 12.3103C12.1333 11.9369 12.24 11.4169 12.0933 10.9503C11.6 9.45693 11.3333 7.85693 11.3333 6.19027C11.3333 5.45693 10.7333 4.85693 10 4.85693Z" fill="white"/>
    </svg>
    