<svg width="37" height="32" viewBox="0 0 37 32" fill="none" xmlns="http://www.w3.org/2000/svg">
    <path d="M21.64 31.976V21.096C21.64 15.464 22.92 10.856 25.48 7.272C28.04 3.60266 31.7947 1.21333 36.744 0.103996V5.864C34.0133 6.54666 32.008 7.82666 30.728 9.70399C29.448 11.496 28.6373 13.8 28.296 16.616H34.184V31.976H21.64ZM0.264001 31.976V21.096C0.264001 15.464 1.50133 10.856 3.976 7.272C6.536 3.60266 10.2907 1.21333 15.24 0.103996V5.864C12.5947 6.54666 10.5893 7.82666 9.224 9.70399C7.944 11.496 7.176 13.8 6.92 16.616H12.68V31.976H0.264001Z" fill="white"/>
    </svg>
    